<svg data-v-423bf9ae="" xmlns="http://www.w3.org/2000/svg" viewBox="0 0 184.9999980616376 163" class="iconAbove"><!----><!----><!----><g data-v-423bf9ae="" id="bc8d9102-9eb8-47fa-8427-a552d5b44f08" fill="black" transform="matrix(6.097560881055492,0,0,6.097560881055492,-4.207316864489471,73.85366347780212)"><path d="M6.56 9.56L6.56 14.52L5.50 14.52L5.28 13.45Q5.07 14.15 4.54 14.39Q4.00 14.62 2.97 14.62L2.97 14.62Q2.28 14.62 1.85 14.49Q1.41 14.36 1.15 14.04Q0.89 13.73 0.79 13.27Q0.69 12.82 0.69 12.10L0.69 12.10Q0.69 11.78 0.80 11.53Q0.92 11.27 1.11 11.09Q1.31 10.92 1.63 10.79Q1.96 10.66 2.30 10.58Q2.65 10.51 3.15 10.46Q3.64 10.42 4.12 10.40Q4.59 10.39 5.22 10.39L5.22 10.39L5.22 8.36Q5.22 8.01 4.89 7.88Q4.56 7.75 3.72 7.75L3.72 7.75Q3.13 7.75 2.84 7.77Q2.54 7.80 2.39 7.93Q2.24 8.07 2.21 8.20Q2.19 8.33 2.18 8.68L2.18 8.68Q2.17 8.81 2.17 8.89L2.17 8.89L1.13 8.85Q1.11 8.74 1.11 8.52L1.11 8.52Q1.11 8.07 1.25 7.75Q1.38 7.43 1.59 7.25Q1.80 7.07 2.17 6.97Q2.54 6.86 2.91 6.84Q3.27 6.81 3.81 6.81L3.81 6.81Q4.63 6.81 5.14 6.94Q5.65 7.06 5.98 7.39Q6.31 7.72 6.44 8.23Q6.56 8.74 6.56 9.56L6.56 9.56ZM5.22 12.37L5.22 12.37L5.22 11.20Q3.87 11.20 3.14 11.31Q2.42 11.41 2.18 11.59Q1.93 11.77 1.93 12.10L1.93 12.10Q1.93 12.11 1.93 12.14L1.93 12.14Q1.93 13.18 2.11 13.43Q2.28 13.69 3.15 13.69L3.15 13.69Q3.90 13.69 4.36 13.51Q4.83 13.33 5.01 13.05Q5.19 12.78 5.22 12.37ZM12.71 7.02L14.10 7.02L11.61 14.52L10.15 14.52L7.79 7.02L9.06 7.02L10.89 13.35L12.71 7.02ZM21.28 10.66L21.28 10.66Q20.46 10.75 20.26 10.76L20.26 10.76L16.54 10.76Q16.54 11.75 16.59 12.93L16.59 12.93Q16.63 13.39 16.98 13.54Q17.34 13.69 18.38 13.69L18.38 13.69Q18.77 13.69 19.05 13.65Q19.33 13.62 19.51 13.55Q19.68 13.47 19.78 13.40Q19.88 13.32 19.93 13.17Q19.97 13.02 19.99 12.91Q20.00 12.80 20.02 12.59Q20.03 12.37 20.05 12.24L20.05 12.24L21.10 12.43Q21.08 12.91 21.03 13.24Q20.97 13.57 20.84 13.82Q20.71 14.08 20.54 14.22Q20.36 14.37 20.06 14.46Q19.76 14.56 19.39 14.59Q19.03 14.62 18.50 14.62L18.50 14.62Q17.81 14.62 17.31 14.54Q16.80 14.46 16.44 14.35Q16.08 14.23 15.85 13.97Q15.62 13.71 15.49 13.47Q15.35 13.23 15.29 12.76Q15.23 12.30 15.21 11.92Q15.20 11.54 15.20 10.87L15.20 10.87Q15.20 9.93 15.22 9.40Q15.24 8.87 15.35 8.34Q15.46 7.81 15.65 7.57Q15.83 7.33 16.19 7.13Q16.56 6.92 17.05 6.87Q17.54 6.81 18.30 6.81L18.30 6.81Q18.83 6.81 19.21 6.84Q19.59 6.87 19.91 6.97Q20.23 7.06 20.44 7.18Q20.65 7.31 20.81 7.55Q20.97 7.79 21.06 8.04Q21.14 8.30 21.20 8.72Q21.25 9.15 21.27 9.58Q21.28 10.01 21.28 10.66ZM16.54 10.04L16.54 10.04L19.93 10.04Q19.92 9.17 19.87 8.44L19.87 8.44Q19.84 8.03 19.51 7.89Q19.17 7.75 18.29 7.75L18.29 7.75Q17.32 7.75 17.06 7.85L17.06 7.85Q16.94 7.89 16.85 7.97Q16.77 8.06 16.71 8.22Q16.66 8.37 16.63 8.51Q16.60 8.65 16.58 8.89Q16.56 9.13 16.56 9.27Q16.55 9.40 16.55 9.67Q16.54 9.95 16.54 10.04ZM26.45 6.85L26.45 6.85L26.39 7.99Q26.13 7.96 25.90 7.96L25.90 7.96Q25.42 7.96 25.12 8.05Q24.81 8.15 24.66 8.38Q24.51 8.61 24.46 8.91Q24.40 9.21 24.40 9.71L24.40 9.71Q24.40 9.99 24.43 10.53Q24.45 11.07 24.45 11.30L24.45 11.30L24.45 14.52L23.11 14.52L23.11 7.02L24.33 7.02L24.47 7.86Q24.68 7.37 25.11 7.10Q25.54 6.83 26.14 6.83L26.14 6.83Q26.29 6.83 26.45 6.85ZM30.97 13.57L30.97 13.57L30.95 14.53Q30.37 14.62 29.91 14.62L29.91 14.62Q29.41 14.62 29.08 14.51Q28.76 14.40 28.59 14.16Q28.43 13.92 28.37 13.63Q28.31 13.34 28.31 12.89L28.31 12.89L28.31 7.79L27.29 7.79L27.29 7.02L28.31 7.02L28.31 4.89L29.65 4.78L29.65 7.02L31.03 7.02L31.03 7.79L29.65 7.79L29.65 12.43Q29.65 13.17 29.72 13.39Q29.79 13.61 30.11 13.61L30.11 13.61Q30.43 13.61 30.97 13.57Z"></path></g><!----><g data-v-423bf9ae="" id="04c26050-f2b0-4dca-9440-869be8ea19e6" transform="matrix(1,0,0,1,43,-6)" stroke="none" fill="black"><path d="M83 6H17C10.4 6 5 11.4 5 18v66c0 6.6 5.4 12 12 12h66c6.6 0 12-5.4 12-12V18c0-6.6-5.4-12-12-12zM31.9 78.9H17.5V36.8c2.7 3.4 5.7 6.6 8.9 9.6 1.8 1.7 3.6 3.3 5.5 4.8v27.7zm19.8 0H37.3V55.1c4.6 3.1 9.4 5.8 14.4 7.9v15.9zm19.8 0H57.1V65.1c2 .7 4.1 1.3 6.2 1.9l-.9 8.4 9.1-4.1v7.6zm-4.8-9.3l.6-5.4c-3.5-.7-6.9-1.7-10.1-2.9-1.8-.7-3.6-1.4-5.4-2.2-5.1-2.3-10-5.2-14.4-8.4-1.9-1.4-3.7-2.8-5.4-4.3-5.5-4.7-10.4-10.1-14.4-15.6V21c10 16.8 27.5 32.9 50.3 37.7l.5-5.3L81.5 63l-14.8 6.6z"></path></g><!----></svg>